<?xml version="1.0" standalone="no"?>
<!DOCTYPE svg PUBLIC "-//W3C//DTD SVG 20010904//EN"
 "http://www.w3.org/TR/2001/REC-SVG-20010904/DTD/svg10.dtd">
<svg version="1.0" xmlns="http://www.w3.org/2000/svg"
 width="1256.000000pt" height="1256.000000pt" viewBox="0 0 1256.000000 1256.000000"
 preserveAspectRatio="xMidYMid meet">
<metadata>
Created by potrace 1.14, written by Peter Selinger 2001-2017
</metadata>
<g transform="translate(0.000000,1256.000000) scale(0.100000,-0.100000)"
fill="#000000" stroke="none">
<path d="M6907 9214 c-1 -1 -18 -4 -37 -7 -112 -16 -250 -72 -306 -124 -14
-12 -27 -23 -29 -23 -16 0 -135 -148 -135 -168 0 -7 -4 -12 -10 -12 -5 0 -10
-9 -10 -19 0 -11 -3 -21 -8 -23 -8 -3 -44 -109 -49 -148 -2 -14 -5 -172 -7
-352 l-2 -328 25 0 c15 -1 91 -1 171 -2 l145 0 2 288 c1 159 4 309 8 332 14
106 101 202 210 231 11 3 1158 5 2550 6 l2530 0 44 -24 c77 -41 138 -116 158
-195 3 -12 6 -757 7 -1656 2 -1787 4 -1702 -57 -1787 -32 -46 -102 -95 -152
-109 -16 -4 -268 -9 -560 -10 -291 -1 -531 -2 -531 -3 -1 -1 8 -49 26 -131 18
-82 31 -142 36 -170 3 -14 19 -88 35 -165 26 -123 33 -152 45 -200 3 -14 16
-77 20 -100 1 -11 5 -29 8 -40 33 -148 86 -396 94 -440 l4 -30 -33 30 c-18 17
-45 41 -60 55 -69 65 -233 216 -249 230 -15 13 -77 70 -274 253 -17 16 -71 66
-120 110 -49 45 -106 98 -126 117 -103 97 -245 227 -264 240 -18 12 -226 14
-1571 15 -1493 1 -1552 2 -1595 20 -25 11 -56 29 -70 42 -14 13 -27 23 -30 23
-14 0 -69 110 -76 150 -9 55 -9 118 -1 126 4 4 3 14 -1 23 -9 19 -9 42 0 56 4
6 3 17 -1 24 -5 7 -6 22 -4 32 5 19 -1 19 -168 17 l-174 -3 1 -155 c1 -167 12
-232 58 -331 40 -87 56 -110 134 -186 65 -66 172 -135 231 -149 9 -2 34 -9 56
-16 31 -9 383 -13 1553 -15 l1514 -3 45 -43 c25 -23 65 -60 88 -82 24 -22 82
-76 130 -120 49 -44 105 -96 125 -115 51 -48 253 -234 315 -291 49 -45 135
-124 199 -184 43 -40 210 -193 266 -244 25 -23 51 -41 57 -41 7 0 13 -3 13 -8
0 -14 75 -30 139 -30 147 1 272 124 274 268 1 60 -6 115 -22 170 -5 19 -12 49
-15 65 -2 17 -16 83 -30 148 -14 65 -28 128 -30 140 -3 12 -17 76 -31 142 -15
66 -28 129 -30 140 -3 11 -9 40 -15 65 -5 25 -12 56 -14 70 -2 14 -9 43 -14
65 -6 22 -13 57 -16 77 l-6 37 318 1 c174 0 333 3 352 5 40 6 74 13 78 15 2 3
4 3 47 14 58 15 184 95 240 151 83 83 148 207 172 330 4 22 8 805 8 1740 l0
1700 -27 76 c-50 141 -133 253 -244 330 -27 19 -51 34 -54 35 -3 0 -26 10 -51
22 -74 35 -147 49 -254 52 -111 2 -4966 6 -4968 4z"/>
<path d="M10 7762 c-7 -3 -10 -299 -10 -855 l0 -852 172 2 c95 1 176 2 179 2
3 1 6 383 6 849 l0 848 -41 3 c-23 2 -47 3 -53 2 -14 -1 -22 -1 -88 -1 -25 0
-51 0 -57 0 -7 -1 -32 1 -56 2 -23 2 -47 2 -52 0z"/>
<path d="M9980 7762 c-23 -4 -52 -31 -45 -42 2 -4 0 -24 -5 -46 -5 -21 -11
-52 -14 -69 -5 -28 -9 -45 -21 -105 -2 -14 -7 -38 -11 -55 -3 -16 -14 -73 -24
-125 -10 -52 -21 -106 -25 -120 -3 -14 -7 -36 -10 -50 -2 -14 -14 -72 -26
-130 -11 -58 -23 -116 -25 -130 -2 -14 -7 -36 -10 -50 -4 -14 -8 -34 -9 -45
-2 -11 -11 -56 -20 -100 -9 -44 -19 -91 -21 -105 -3 -14 -7 -34 -8 -45 -2 -11
-7 -31 -10 -45 -3 -14 -8 -36 -10 -50 -2 -14 -7 -36 -10 -50 -3 -14 -8 -36
-10 -50 -3 -14 -7 -36 -10 -50 -7 -32 -24 -118 -30 -150 -3 -14 -8 -40 -12
-57 -3 -18 -3 -33 2 -34 13 -1 305 -1 330 0 17 1 23 10 29 44 4 23 9 49 11 57
2 8 11 55 21 103 19 96 13 88 139 194 102 86 97 83 109 62 47 -83 111 -185
117 -187 4 -2 8 -8 8 -12 0 -5 31 -58 68 -117 37 -59 71 -116 75 -125 4 -12
18 -18 39 -19 151 -3 388 -3 388 0 0 2 -20 37 -45 77 -25 39 -45 77 -45 83 0
6 -4 11 -8 11 -4 0 -21 25 -37 55 -17 30 -33 55 -37 55 -5 0 -8 5 -8 10 0 6
-22 46 -50 90 -27 44 -50 84 -50 89 0 5 -3 11 -7 13 -5 2 -37 50 -71 108 l-64
104 29 24 c15 13 42 35 58 50 17 15 53 45 80 67 28 21 52 42 55 45 4 5 147
122 194 160 10 8 25 21 32 28 8 8 55 47 105 88 59 48 84 74 72 75 -10 0 -114
0 -231 0 l-213 1 -37 -29 c-49 -37 -71 -55 -91 -74 -9 -8 -36 -31 -61 -50 -44
-34 -82 -64 -104 -84 -6 -6 -58 -49 -116 -95 -58 -47 -110 -89 -116 -95 -32
-27 -55 -45 -60 -45 -6 0 0 45 15 112 6 24 13 59 16 78 3 19 10 53 15 75 5 22
11 54 14 70 3 17 8 41 11 55 3 14 8 39 11 55 3 17 9 48 14 70 8 36 15 73 26
130 2 11 8 43 14 70 6 28 13 64 16 80 2 17 7 37 9 45 3 8 7 34 10 57 5 37 3
42 -17 45 -13 2 -38 1 -55 -3 -18 -4 -33 -4 -33 0 0 7 -86 5 -106 -3 -8 -3
-14 -2 -14 2 0 7 -48 9 -90 4z"/>
<path d="M2002 7556 c-3 -6 -6 -74 -6 -151 l-1 -140 -90 1 c-49 0 -92 -3 -95
-7 -4 -6 -5 -231 -1 -261 1 -5 43 -8 94 -8 l93 0 1 -277 c0 -153 3 -300 7
-326 14 -100 68 -203 130 -250 36 -28 107 -65 133 -71 10 -1 27 -7 38 -12 11
-5 81 -9 155 -8 115 0 144 4 192 23 74 29 106 54 92 72 -6 8 -21 43 -34 79
-13 36 -31 84 -41 107 l-18 41 -41 -20 c-54 -27 -145 -28 -188 -2 -62 36 -66
58 -66 364 l-1 275 153 3 c111 2 152 6 153 15 4 44 0 247 -4 254 -3 5 -68 8
-144 8 -76 -1 -143 0 -149 2 -6 2 -10 54 -9 143 1 77 -1 144 -4 148 -9 11
-342 9 -349 -2z"/>
<path d="M1070 7307 c-3 -3 -24 -7 -48 -11 -24 -3 -47 -8 -53 -11 -5 -4 -18
-8 -30 -10 -11 -2 -55 -21 -97 -42 -153 -75 -274 -229 -318 -402 -16 -63 -21
-222 -9 -271 3 -14 8 -38 11 -55 12 -67 82 -190 146 -256 35 -35 72 -70 83
-76 11 -7 39 -24 63 -39 48 -29 169 -73 222 -80 31 -4 116 -13 145 -16 13 -1
162 11 197 16 102 15 228 77 305 152 31 30 32 32 15 51 -75 86 -166 183 -172
183 -4 0 -20 -11 -35 -24 -114 -98 -324 -118 -472 -45 -69 35 -140 121 -145
178 l-3 25 462 0 461 0 5 25 c3 13 3 61 2 106 -13 304 -198 528 -489 590 -58
12 -237 21 -246 12z m232 -297 c79 -37 152 -128 160 -200 l3 -25 -302 0 -302
-1 5 26 c24 104 122 204 214 218 13 2 27 6 30 8 12 13 150 -6 192 -26z"/>
<path d="M3428 7289 c-61 -17 -158 -67 -183 -94 -5 -6 -18 -17 -28 -24 -16
-13 -17 -10 -17 35 0 75 -2 84 -19 85 -72 3 -313 0 -317 -4 -8 -7 -8 -1216 -1
-1224 5 -4 237 -7 327 -4 l26 1 1 333 c1 372 3 395 33 460 40 85 110 134 206
144 145 14 240 -62 258 -207 4 -36 7 -190 6 -295 -1 -11 0 -113 0 -227 l1
-208 37 -1 c43 -1 304 -1 314 0 3 1 6 61 6 134 -1 74 2 139 6 145 3 6 2 13 -3
17 -7 3 -7 15 -1 29 5 13 6 26 3 29 -6 7 -10 197 -3 197 3 0 4 35 3 78 -3 135
47 235 142 285 56 29 196 31 240 2 49 -31 82 -75 101 -134 16 -49 18 -100 20
-411 1 -195 2 -359 3 -365 1 -8 259 -12 346 -6 6 1 10 137 9 388 -1 424 -5
475 -41 572 -18 49 -56 111 -94 151 -180 191 -574 184 -770 -13 l-43 -43 -55
57 c-122 124 -323 170 -513 118z"/>
<path d="M5579 7290 c-197 -51 -346 -171 -426 -340 -85 -181 -76 -417 23 -593
30 -54 141 -177 159 -177 7 0 15 -3 17 -7 7 -16 85 -60 143 -81 127 -46 232
-59 382 -48 98 7 215 40 288 81 64 36 135 95 135 112 0 6 -24 36 -52 68 -29
31 -69 75 -89 97 -32 35 -40 38 -58 29 -12 -7 -21 -16 -21 -21 0 -6 -6 -10
-14 -10 -7 0 -25 -9 -39 -20 -14 -11 -33 -21 -43 -23 -11 -1 -24 -5 -29 -9
-18 -11 -98 -21 -162 -20 -145 3 -262 69 -314 177 -36 76 -71 70 442 70 253
-1 463 3 466 7 6 11 6 162 -1 203 -3 17 -7 44 -10 60 -7 42 -50 137 -90 198
-72 111 -171 185 -311 233 -68 23 -99 27 -205 29 -93 2 -142 -2 -191 -15z
m281 -266 c85 -26 180 -131 191 -214 l4 -25 -303 -1 -303 -1 7 31 c22 105 109
190 219 216 36 9 150 5 185 -6z"/>
<path d="M7580 7299 c-19 -3 -50 -9 -68 -13 -130 -26 -309 -163 -393 -301 -22
-37 -69 -132 -68 -138 1 -1 -4 -21 -10 -45 -24 -87 -32 -222 -19 -312 18 -122
68 -222 147 -299 105 -100 207 -142 361 -147 147 -4 235 21 349 99 l44 30 -7
-39 c-4 -21 -9 -47 -12 -56 -3 -10 -2 -18 3 -19 54 -4 303 -3 319 2 15 5 23
19 27 46 7 47 15 90 23 123 3 14 8 36 10 50 2 14 9 45 14 70 6 25 12 59 15 75
2 17 11 63 19 102 9 40 18 86 21 103 3 16 12 60 20 97 9 37 17 81 20 97 2 16
16 88 31 160 15 72 28 140 30 151 4 25 12 68 24 118 7 34 6 37 -14 37 -11 1
-90 1 -175 2 -169 1 -166 2 -175 -63 -3 -19 -8 -49 -12 -67 l-7 -33 -44 50
c-91 104 -293 156 -473 120z m230 -292 c117 -14 198 -113 206 -253 8 -162 -65
-307 -192 -378 -108 -60 -279 -49 -367 24 -64 53 -98 187 -74 295 5 22 11 51
13 65 8 40 61 125 102 162 67 60 176 100 252 92 14 -2 41 -5 60 -7z"/>
<path d="M9007 7300 c-79 -14 -186 -49 -241 -80 -107 -61 -188 -167 -202 -267
-19 -130 2 -210 74 -280 60 -57 134 -86 332 -129 73 -16 91 -20 128 -28 69
-16 112 -48 112 -82 0 -87 -83 -125 -259 -120 -58 2 -117 6 -131 10 -14 3 -47
11 -75 17 -27 6 -85 27 -128 47 -42 19 -79 33 -81 31 -1 -2 -33 -61 -69 -130
l-67 -126 78 -35 c156 -72 362 -101 567 -83 222 21 410 125 473 265 31 68 41
187 21 254 -14 48 -62 108 -114 143 -43 29 -170 72 -260 87 -125 22 -225 54
-246 79 -43 51 2 125 91 151 107 32 328 6 449 -53 25 -11 46 -20 47 -18 5 5
124 248 124 253 0 15 -161 71 -260 89 -56 10 -310 14 -363 5z"/>
</g>
</svg>
